<svg width="336.1" height="70.7" viewBox="0 0 336.1 70.7" xmlns="http://www.w3.org/2000/svg"><g id="svgGroup" stroke-linecap="round" fill-rule="evenodd" font-size="9pt" stroke="#ffffff" stroke-width="0.25mm" fill="#ffffff" style="stroke:#ffffff;stroke-width:0.25mm;fill:#ffffff"><path d="M 116.7 0 L 139.9 63.8 L 140.5 63.8 L 163.8 0 L 170.1 0 L 144.3 70.7 L 136 70.7 L 110.3 0 L 116.7 0 Z M 106.6 70.7 L 84.4 7.7 L 84 7.7 L 61.8 70.7 L 55.7 70.7 L 81 0 L 87.8 0 L 113 70.7 L 106.6 70.7 Z M 329.7 70.7 L 307.5 7.7 L 307.1 7.7 L 284.9 70.7 L 278.8 70.7 L 304.1 0 L 310.9 0 L 336.1 70.7 L 329.7 70.7 Z M 23.7 41.6 L 6 41.6 L 6 70.7 L 0 70.7 L 0 0 L 23.6 0 A 49.302 49.302 0 0 1 28.994 0.277 Q 31.625 0.567 33.833 1.162 A 21.475 21.475 0 0 1 37.4 2.45 A 17.43 17.43 0 0 1 41.767 5.326 A 14.619 14.619 0 0 1 44.95 9.5 Q 47.3 14.1 47.3 20.7 A 41.676 41.676 0 0 1 47.089 25.001 Q 46.819 27.607 46.2 29.8 A 15.048 15.048 0 0 1 44 34.477 A 13.922 13.922 0 0 1 42.4 36.35 A 14.323 14.323 0 0 1 38.894 38.845 Q 37.317 39.657 35.406 40.226 A 24.483 24.483 0 0 1 35.15 40.3 A 29.587 29.587 0 0 1 31.407 41.093 Q 29.392 41.394 27.052 41.517 A 64.189 64.189 0 0 1 23.7 41.6 Z M 246.8 41.6 L 229.1 41.6 L 229.1 70.7 L 223.1 70.7 L 223.1 0 L 246.7 0 A 49.302 49.302 0 0 1 252.094 0.277 Q 254.725 0.567 256.933 1.162 A 21.475 21.475 0 0 1 260.5 2.45 A 17.43 17.43 0 0 1 264.867 5.326 A 14.619 14.619 0 0 1 268.05 9.5 Q 270.4 14.1 270.4 20.7 A 41.676 41.676 0 0 1 270.189 25.001 Q 269.919 27.607 269.3 29.8 A 15.048 15.048 0 0 1 267.1 34.477 A 13.922 13.922 0 0 1 265.5 36.35 A 14.323 14.323 0 0 1 261.994 38.845 Q 260.417 39.657 258.506 40.226 A 24.483 24.483 0 0 1 258.25 40.3 A 29.587 29.587 0 0 1 254.507 41.093 Q 252.492 41.394 250.152 41.517 A 64.189 64.189 0 0 1 246.8 41.6 Z M 195.7 0 L 195.7 70.7 L 189.7 70.7 L 189.7 0 L 195.7 0 Z M 6 36.4 L 23.2 36.4 Q 30.126 36.4 34.006 34.688 A 12.633 12.633 0 0 0 34.2 34.6 A 12.158 12.158 0 0 0 37.262 32.62 A 10.023 10.023 0 0 0 39.7 29.3 A 16.492 16.492 0 0 0 40.848 25.668 Q 41.3 23.41 41.3 20.7 A 27.852 27.852 0 0 0 41.08 17.089 Q 40.838 15.241 40.329 13.692 A 13.944 13.944 0 0 0 39.7 12.1 Q 38.1 8.7 34.2 6.95 A 16.504 16.504 0 0 0 31.141 5.954 Q 28.071 5.249 23.795 5.203 A 55.982 55.982 0 0 0 23.2 5.2 L 6 5.2 L 6 36.4 Z M 229.1 36.4 L 246.3 36.4 Q 253.226 36.4 257.106 34.688 A 12.633 12.633 0 0 0 257.3 34.6 A 12.158 12.158 0 0 0 260.362 32.62 A 10.023 10.023 0 0 0 262.8 29.3 A 16.492 16.492 0 0 0 263.948 25.668 Q 264.4 23.41 264.4 20.7 A 27.852 27.852 0 0 0 264.18 17.089 Q 263.938 15.241 263.429 13.692 A 13.944 13.944 0 0 0 262.8 12.1 Q 261.2 8.7 257.3 6.95 A 16.504 16.504 0 0 0 254.241 5.954 Q 251.171 5.249 246.895 5.203 A 55.982 55.982 0 0 0 246.3 5.2 L 229.1 5.2 L 229.1 36.4 Z M 25 39.4 L 31 38.3 L 49.4 70.7 L 42.7 70.7 L 25 39.4 Z M 248.1 39.4 L 254.1 38.3 L 272.5 70.7 L 265.8 70.7 L 248.1 39.4 Z M 100.5 44.3 L 100.5 49.5 L 68.2 49.5 L 68.2 44.3 L 100.5 44.3 Z M 323.6 44.3 L 323.6 49.5 L 291.3 49.5 L 291.3 44.3 L 323.6 44.3 Z M 206.5 5.2 L 178.8 5.2 L 178.8 0 L 206.5 0 L 206.5 5.2 Z M 206.5 70.7 L 178.8 70.7 L 178.8 65.5 L 206.5 65.5 L 206.5 70.7 Z" vector-effect="non-scaling-stroke"/></g></svg>